<svg width="653" height="653" xmlns="http://www.w3.org/2000/svg"><g fill="none" fill-rule="evenodd"><path fill="gold" d="M437.25 134.675L548 326.5 437.25 518.325h-221.5L105 326.5l110.75-191.825z"/><path d="M445.711 120.02L564.923 326.5 445.71 532.98H207.29L88.077 326.5 207.29 120.02h238.42z" stroke="gold"/><path d="M319.44 184c7.287 0 13.194 5.89 13.194 13.154h0v83.308c0 2.42 1.97 4.384 4.398 4.384a4.393 4.393 0 004.398-4.384h0v-74.539l.003-.31c.166-7.122 6.008-12.844 13.19-12.844 7.287 0 13.194 5.89 13.194 13.154h0v83.308c0 2.42 1.97 4.384 4.398 4.384a4.393 4.393 0 004.398-4.384h0v-57l.003-.31c.166-7.122 6.008-12.844 13.19-12.844 7.287 0 13.194 5.89 13.194 13.154h0v118.384c0 14.101-5.497 61.385-66.91 61.385-37.09 0-56.925-14.513-69.169-33.069a25147.68 25147.68 0 00-18.07-27.327l-1.095-1.653a77123.024 77123.024 0 00-21.806-32.922c-5.207-8.085-3.342-18.45 4.178-23.203 7.547-4.648 17.847-1.93 23.124 6.182h0l17.812 24.3V214.692l.003-.31c.166-7.121 6.008-12.844 13.19-12.844 7.287 0 13.194 5.89 13.194 13.154h0v65.77c0 2.42 1.97 4.384 4.398 4.384a4.393 4.393 0 004.398-4.384h0v-83.308l.003-.31c.166-7.122 6.008-12.844 13.19-12.844z" fill="#F6F7FB" fill-rule="nonzero" stroke="#000" stroke-dasharray="280,30" stroke-linecap="round" stroke-linejoin="round" stroke-width="4"/><text font-family="ArialRoundedMTBold, Arial Rounded MT Bold" font-size="61.754" fill="#000" transform="translate(223 184)"><tspan x="56.86" y="297.86">403</tspan></text></g></svg>