<svg width="484" height="507" xmlns="http://www.w3.org/2000/svg"><g fill="none" fill-rule="evenodd"><path d="M484 245.999C484 378.545 376.549 486 244 486S4 378.545 4 245.999C4 113.45 111.451 6 244 6s240 107.451 240 239.999" fill="#F0F4F8"/><path d="M480 239.999C480 372.545 372.549 480 240 480S0 372.545 0 239.999C0 107.45 107.451 0 240 0s240 107.451 240 239.999" fill="#F6F7FB"/><g fill-rule="nonzero"><path d="M378.404 161.719h-57.898c-10.936 0-19.299-8.367-19.299-19.309V84.485l77.197 77.234z" fill="#AAB1BA"/><path d="M378.404 161.719v205.957c0 14.16-11.58 25.744-25.732 25.744H133.949c-14.153 0-25.732-11.585-25.732-25.744V110.229c0-14.16 11.58-25.744 25.732-25.744h167.26v57.925c0 10.942 8.362 19.309 19.298 19.309h57.897z" fill="#F6F7FB"/><path d="M352.672 396.639H133.949c-16.083 0-28.949-12.873-28.949-28.963V110.229c0-16.09 12.866-28.963 28.949-28.963h141.526c1.93 0 3.217 1.288 3.217 3.219 0 1.93-1.287 3.218-3.217 3.218H133.95c-12.223 0-22.516 10.298-22.516 22.527v257.446c0 12.228 10.292 22.527 22.516 22.527h218.723c12.222 0 22.516-10.298 22.516-22.527v-204.67l-70.764-70.798v50.202c0 9.011 7.077 16.09 16.082 16.09h19.3c1.93 0 3.216 1.288 3.216 3.219 0 1.93-1.286 3.218-3.216 3.218h-19.3c-12.222 0-22.515-10.298-22.515-22.527V84.485c0-1.288.643-2.574 1.93-3.219 1.286-.643 2.572 0 3.216.644l77.197 77.234c.643.643.643 1.287.643 2.574v205.957c.644 16.091-12.223 28.964-28.305 28.964z" fill="#000"/></g><text font-family="ArialRoundedMTBold, Arial Rounded MT Bold" font-size="106.667" fill="#000"><tspan x="148.5" y="287">404</tspan></text><g fill-rule="nonzero"><path d="M253.036 481.388c5.614 5.613 5.614 14.385 0 19.998-5.613 5.614-14.385 5.614-19.998 0l-24.56-24.559.351-.35 19.297-19.648 24.91 24.559z" fill="gold"/><path d="M134.45 315.788c36.838 0 66.66 29.822 66.66 66.661s-29.822 66.66-66.66 66.66c-36.84 0-66.662-29.821-66.662-66.66s29.822-66.66 66.661-66.66" fill="#ECF4F7" opacity=".424"/><g fill="#AAB1BA"><path d="M201.11 382.449c0-36.839-29.821-66.66-66.66-66.66-36.84 0-66.662 29.821-66.662 66.66s29.822 66.66 66.661 66.66c36.84 0 66.662-29.821 66.662-66.66m14.034 0c0 17.191-5.263 33.33-14.736 46.312a74.746 74.746 0 01-19.648 19.647c-12.981 9.123-29.12 14.736-46.312 14.736-44.557 0-80.695-36.137-80.695-80.695 0-44.557 36.138-80.695 80.695-80.695 44.558 0 80.696 36.138 80.696 80.695"/><path d="M208.83 476.476l-27.718-27.717-.35-.35a74.745 74.745 0 0019.647-19.648h.351l27.717 27.717-19.297 19.648-.35.35z"/></g><path d="M243.213 507c-4.21 0-8.07-1.754-11.228-4.56l-41.4-41.752c-.701-.702-.701-1.754 0-2.456.702-.701 1.755-.701 2.456 0l41.4 41.75c2.456 2.457 5.263 3.51 8.771 3.51 3.158 0 6.315-1.404 8.771-3.51 2.456-2.455 3.509-5.262 3.509-8.77s-1.404-6.315-3.509-8.771l-23.506-23.507-8.771 8.771c-.702.702-1.755.702-2.456 0-.702-.702-.702-1.754 0-2.456l9.823-9.823c.351-.35.702-.35 1.404-.35.35 0 1.052.35 1.403.35l24.56 24.559c3.157 2.807 4.56 7.017 4.56 11.227s-1.754 8.07-4.56 11.228c-3.158 2.806-7.017 4.56-11.227 4.56zm-108.764-42.102C88.84 464.898 52 428.06 52 382.45S88.84 300 134.45 300s82.449 36.839 82.449 82.449c0 17.191-5.263 32.98-14.034 45.961l17.542 17.543c.351.35.351.701.351 1.403 0 .701 0 1.052-.35 1.403-.702.702-1.755.702-2.456 0l-16.841-16.84c-15.438 19.647-39.646 32.98-66.662 32.98zm0-161.39c-43.505 0-78.94 35.436-78.94 78.941s35.435 78.94 78.94 78.94c43.505 0 78.941-35.435 78.941-78.94 0-43.505-35.435-78.94-78.94-78.94zm0 147.356c-37.891 0-68.415-30.524-68.415-68.415 0-37.892 30.524-68.415 68.415-68.415 37.892 0 68.416 30.523 68.416 68.415 0 37.891-30.524 68.415-68.416 68.415zm0-133.322c-35.786 0-64.907 29.121-64.907 64.907 0 35.787 29.12 64.907 64.907 64.907 35.787 0 64.907-29.12 64.907-64.907 0-35.786-29.12-64.907-64.907-64.907zm31.577 63.153c-.351 0-1.053 0-1.404-.35l-28.068-28.069c-.35-.35-.35-.701-.35-1.403 0-.702 0-1.052.35-1.403.702-.702 1.755-.702 2.456 0l28.068 28.068c.35.35.35.702.35 1.403 0 .701 0 1.053-.35 1.403-.35.351-.701.351-1.052.351zm7.017-21.05c-.35 0-1.053 0-1.403-.352l-14.034-14.033c-.351-.351-.351-.703-.351-1.404s0-1.053.35-1.403c.702-.702 1.755-.702 2.456 0l14.034 14.034c.35.35.35.701.35 1.403 0 .701 0 1.052-.35 1.403s-.702.351-1.052.351z" fill="#000"/></g></g></svg>