<svg width="1440" height="929" xmlns="http://www.w3.org/2000/svg" xmlns:xlink="http://www.w3.org/1999/xlink"><defs><path id="a" d="M0 0h1440v929H0z"/></defs><g fill="none" fill-rule="evenodd"><mask id="b" fill="#fff"><use xlink:href="#a"/></mask><g mask="url(#b)"><g transform="translate(-519 -219)"><path d="M1480 563.999C1480 696.545 1372.549 804 1240 804s-240-107.455-240-240.001C1000 431.45 1107.451 324 1240 324s240 107.451 240 239.999" fill="#F0F4F8"/><path d="M1476 557.999C1476 690.545 1368.549 798 1236 798S996 690.545 996 557.999C996 425.45 1103.451 318 1236 318s240 107.451 240 239.999M583.472 684.734c-12.531-19.846-22.565-40.79-30.727-58.664-1.508-3.302-2.964-6.82-4.372-10.223-5.847-14.13-11.893-28.744-23.82-34.73-3.896-1.956-7.707-2.923-11.553-3.072V560c6.353.142 12.934 1.633 19.702 5.032 17.941 9.008 25.625 27.573 32.403 43.952 1.41 3.407 2.74 6.623 4.114 9.627 7.913 17.327 17.614 37.595 29.573 56.534 42.334 67.058 88.862 77.838 114.375 77.838.87 0 1.72-.015 2.539-.039 58.1-1.65 118.001-26.728 171.258-49.55l-3.744-8.768 21.314-9.023-6.013-14.077c-2.026-4.742.191-10.223 4.952-12.244l24.493 57.35c1.518 3.556 4.99 5.687 8.639 5.687 1.224 0 2.468-.24 3.666-.744l-2.66 17.61a9.36 9.36 0 01-3.667.748c-3.65 0-7.12-2.136-8.639-5.692l-6.168-14.442-21.314 9.023-3.779-8.85c-54.73 23.455-116.336 49.233-177.821 50.98a112.21 112.21 0 01-3.374.048c-65.074 0-108.884-53.807-129.377-86.266z" fill="#F6F7FB"/><g fill="#AAB1BA"><path d="M897.134 713.593l-14.556-34.381 22.866-9.762L920 703.83l-22.866 9.762"/><path d="M267.127 587.169a129.514 129.514 0 01-11.938-19.793c-17.837-36.498-24.685-74.044-20.354-111.595 3.807-33.007 15.825-65.812 36.74-100.29 37.671-62.104 96.277-116.082 147.983-163.707 7.666-7.06 14.906-13.728 21.979-20.332 13.358-12.472 28.372-27.249 37.463-44.796 9.214-17.78 10.952-37.187 4.649-51.912-5.591-13.069-18.088-24.606-37.136-34.291-34.076-17.326-70.353-24.632-107.82-21.712-33.037 2.574-68.203 13.189-104.522 31.552-66.608 33.676-126.763 86.905-181.846 139.41l-39.908 38.04L0 214.607l39.907-38.04C95.993 123.106 157.363 68.848 226.06 34.115 264.484 14.687 301.91 3.439 337.297.682c40.81-3.18 80.297 4.765 117.364 23.611 22.923 11.655 38.254 26.22 45.56 43.299 8.544 19.96 6.641 44.536-5.219 67.425-10.418 20.107-26.72 36.197-41.183 49.7-7.117 6.645-14.38 13.334-22.067 20.415-50.825 46.812-108.43 99.87-144.772 159.78-41.232 67.973-46.334 131.59-15.598 194.485 15.362 31.437 43.06 52.04 74.09 55.124 34.399 3.416 66.098-17.087 96.755-36.914 5.821-3.766 11.842-7.66 17.688-11.248 2.168-1.33 4.366-2.732 6.594-4.153 18.328-11.686 41.138-26.229 66.684-13.292 17.882 9.057 25.541 27.723 32.298 44.191 1.405 3.424 2.732 6.657 4.1 9.68 7.888 17.42 17.558 37.798 29.478 56.84 43.636 69.719 91.746 78.93 116.536 78.221 59.466-1.703 120.826-28.243 174.964-51.662l7.84-3.387 7.122 16.638-7.826 3.383c-55.624 24.06-118.669 51.329-181.584 53.134-66.722 1.915-111.544-53.486-132.323-86.686-12.49-19.953-22.491-41.012-30.628-58.982-1.502-3.32-2.953-6.857-4.357-10.28-5.828-14.207-11.855-28.9-23.744-34.917-15.259-7.728-29.265-.104-48.891 12.41a475.14 475.14 0 01-6.856 4.316c-5.665 3.478-11.33 7.142-17.329 11.021-31.705 20.505-67.64 43.749-108.296 39.71-30.172-2.997-57.597-19.524-76.57-45.375"/></g><path d="M1921 607c-32.415-19.157-64.238-49.575-91.966-76.078-17.216-16.456-32.083-30.669-44.414-39.68-58.67-42.873-112.517-64.12-163.077-64.12a176.24 176.24 0 00-48.707 6.833l6.166 13.457-18.323 8.52a8.502 8.502 0 00-.727-2.64l-14.189-30.956 17.929-8.336 5.515 12.035c17.158-5.044 34.61-7.572 52.433-7.572 52.326 0 107.814 21.805 168.01 65.795 12.783 9.345 27.843 23.739 45.28 40.405 26.14 24.988 61.491 56.065 91.543 74.814L1921 607c18.028 9.743 32.724 16.726 44.09 20.949 11.365 4.222 11.365.441 0-11.343l-38.617-17.13" fill="#F6F7FB"/><g fill="#AAB1BA"><path d="M1565.234 399.116l15.287 33.24-25.234 11.69-15.287-33.24 25.234-11.69"/><path d="M1562.173 413.807c69.874-24.016 144.67-5.96 228.677 55.204 12.764 9.297 27.8 23.616 45.211 40.197 44.664 42.537 100.246 95.476 148.932 92.121 18.627-1.283 34.625-10.624 48.912-28.556 46.682-58.6 32.14-138.196 19.31-208.423-.616-3.382-1.231-6.738-1.832-10.065a2639.698 2639.698 0 00-3.455-18.596c-9.17-48.724-18.655-99.101-7.04-147.32 7.03-29.175 23.917-50.785 48.835-62.493 27.969-13.143 63.627-11.616 95.377 4.086 33.851 16.742 61.296 47.99 79.366 90.367 15.104 35.436 23.35 77.82 23.211 119.345-.221 68.06-14.162 135.673-27.637 201.045l-.673 3.28c-.884 4.279-1.788 8.577-2.691 12.89-11.841 56.492-24.1 114.91-.529 169.181 19.103 43.983 56.86 63.507 85.805 63.343L2342 798c-19.545.105-39.027-6.884-56.341-20.22-15.873-12.227-29.142-29.373-37.35-48.28-24.667-56.784-12.13-116.558 0-174.38.904-4.303 1.802-8.59 2.682-12.86l.677-3.28c13.389-64.958 27.239-132.139 27.46-199.334.13-40.382-7.867-81.557-22.53-115.94-17.251-40.467-43.284-70.22-75.28-86.044-29.444-14.56-62.329-16.06-87.967-4.012-22.486 10.564-37.748 30.184-44.145 56.738-11.192 46.422-1.874 95.876 7.127 143.707 1.182 6.275 2.355 12.499 3.465 18.66.6 3.32 1.211 6.671 1.83 10.047 13.159 72.031 28.07 153.677-21.043 215.331-15.647 19.637-34.154 30.323-55.005 31.76-52.435 3.613-109.53-50.765-155.405-94.459-17.19-16.37-32.04-30.51-44.347-39.474-81.59-59.403-153.838-77.077-220.882-54.032l-2.773-8.12" stroke="#AAB1BA" stroke-width="4"/></g><path d="M1259 417.516c0-8.837-1.641-15.466-4.928-19.887-3.292-4.418-8.983-6.629-17.072-6.629-8.094 0-13.784 2.21-17.072 6.63-3.287 4.42-4.928 11.049-4.928 19.886v79.706l11.376 118.703v-.312c.505 3.95 1.824 6.657 3.947 8.108 2.123 1.457 4.348 2.187 6.677 2.187 2.324 0 4.526-.701 6.602-2.105 2.072-1.408 3.362-4.033 3.867-7.878L1259 497.222v-79.706zm-35.92 243.908a15.497 15.497 0 013.226-4.937 15.144 15.144 0 014.802-3.321c1.833-.807 3.797-1.211 5.892-1.211s4.059.404 5.892 1.211a15.144 15.144 0 014.802 3.321c1.365 1.404 2.44 3.048 3.23 4.937.786 1.884 1.174 3.902 1.174 6.056 0 2.153-.388 4.172-1.173 6.056-.79 1.884-1.866 3.528-3.231 4.931a15.144 15.144 0 01-4.802 3.322c-1.833.807-3.797 1.211-5.892 1.211s-4.059-.404-5.892-1.211a15.144 15.144 0 01-4.802-3.322 15.528 15.528 0 01-3.226-4.931c-.79-1.884-1.178-3.903-1.178-6.056 0-2.154.388-4.172 1.178-6.056z" fill="gold"/><path d="M487 467.724V447.11a452.778 452.778 0 0037.195-24.05c31.176-22.389 59.276-48.556 83.522-77.773 5.717-6.888 11.435-14.183 16.966-21.239 22.7-28.955 46.173-58.896 80.09-75.653 20.05-9.905 43.438-14.871 69.87-14.871 14.326 0 29.545 1.458 45.612 4.38 20.386 3.708 40.502 9.278 59.954 14.665 16.084 4.454 32.715 9.06 49.178 12.503 26.262 5.493 53.487 8.262 81.146 8.262 5.35 0 10.715-.104 16.096-.312 32.017-1.236 64.624-6.154 96.91-14.618 41.203-10.8 81.817-27.403 119.949-48.884h34.842c-46.756 29.901-98.03 52.565-150.237 66.25-33.55 8.795-67.453 13.906-100.773 15.192-5.608.217-11.215.325-16.795.325-28.892 0-57.342-2.896-84.813-8.642-17.022-3.561-33.937-8.244-50.292-12.774-19.069-5.28-38.787-10.74-58.376-14.303-15.02-2.732-29.173-4.096-42.41-4.096-23.636 0-44.358 4.347-61.912 13.02-30.258 14.949-52.451 43.258-73.913 70.634-5.607 7.152-11.404 14.547-17.28 21.628-25.222 30.393-54.447 57.608-86.864 80.89A470.082 470.082 0 01487 467.724" fill="#F6F7FB"/><path d="M492.749 468.52L487 453.583c31.584-12.16 61.69-28.447 89.483-48.407 27.792-19.96 52.843-43.287 74.458-69.334 5.097-6.141 10.195-12.645 15.126-18.934 20.237-25.814 41.162-52.507 71.399-67.444 27.562-13.618 62.2-16.765 102.952-9.353 18.173 3.305 36.106 8.27 53.448 13.073 14.339 3.97 29.165 8.076 43.842 11.147 27.941 5.844 57.107 8.229 86.69 7.087 28.543-1.102 57.612-5.486 86.395-13.032 55.834-14.635 110.443-41.215 157.928-76.866l9.608 12.8c-49.127 36.884-105.66 64.392-163.476 79.549-29.91 7.84-60.134 12.396-89.839 13.542-30.884 1.194-61.361-1.302-90.583-7.415-15.174-3.174-30.254-7.35-44.834-11.387-17-4.707-34.579-9.575-52.042-12.751-37.297-6.783-68.587-4.106-93.003 7.955-26.974 13.327-46.76 38.564-65.892 62.97-4.999 6.376-10.167 12.968-15.405 19.28-22.486 27.096-48.54 51.359-77.439 72.114-28.899 20.755-60.211 37.692-93.067 50.343" fill="#AAB1BA"/><path d="M1574.665 1136.692h-22.386c13.51-8.419 29.084-15.074 46.815-20.048 40.797-11.436 86.225-12.457 130.163-13.45 21.707-.487 42.214-.95 60.914-2.684 29.55-2.747 50.742-8.077 68.71-17.282 12.662-6.487 22.897-14.973 30.413-25.224 6.996-9.547 11.502-20.4 13.39-32.265 4.559-28.616-6.577-59.667-29.782-83.064-12.523-12.621-27.484-23.802-43.322-35.648-29.99-22.419-61.005-45.604-75.638-80.008-9.464-22.236-9.483-47.523-.058-69.373 8.678-20.11 24.569-35.291 44.748-42.752 21.08-7.788 44.94-11.696 71.235-11.696 11.848 0 24.193.79 37.005 2.38 16.825 2.092 34.32 5.625 51.686 10.381v11.017c-28.125-7.923-58.774-13.132-88.62-13.132-23.59 0-46.68 3.253-67.63 10.997-17.437 6.444-31.174 19.58-38.691 37.002-8.283 19.2-8.254 41.44.077 61.026 13.516 31.773 43.365 54.086 72.232 75.667 15.453 11.552 31.425 23.498 44.502 36.674 25.581 25.788 37.815 60.255 32.727 92.197-4.467 28.038-22.025 51.214-49.441 65.257-19.226 9.85-41.607 15.528-72.56 18.4-19.071 1.773-39.761 2.24-61.66 2.732-43.28.974-88.032 1.981-127.538 13.06-9.892 2.771-18.955 6.034-27.29 9.836" fill="#F6F7FB"/><path d="M1492.666 1221l.79-38.149 6.076.125c19.014-32.602 49.2-54.356 91.91-66.332 40.798-11.436 86.225-12.457 130.164-13.445 21.711-.492 42.213-.954 60.918-2.69 29.546-2.746 50.738-8.076 68.705-17.281 12.663-6.487 22.897-14.973 30.414-25.224 6.996-9.547 11.501-20.4 13.395-32.265 4.558-28.616-6.577-59.667-29.787-83.059-12.523-12.626-27.484-23.807-43.322-35.648-29.99-22.424-61.005-45.609-75.639-80.013-9.463-22.236-9.482-47.523-.058-69.373 8.678-20.11 24.57-35.291 44.748-42.752 30.587-11.3 67-14.433 108.24-9.315 34.398 4.27 71.61 14.583 104.78 29.045l-4.235 9.716c-57.199-24.93-141.116-43.142-205.108-19.499-17.433 6.444-31.175 19.58-38.692 37.002-8.277 19.2-8.253 41.44.078 61.026 13.52 31.773 43.365 54.086 72.232 75.667 15.452 11.552 31.43 23.498 44.502 36.674 25.58 25.788 37.814 60.255 32.726 92.197-4.466 28.038-22.025 51.214-49.441 65.257-19.225 9.85-41.607 15.528-72.56 18.4-19.07 1.773-39.756 2.24-61.66 2.732-43.279.974-88.027 1.981-127.537 13.06-21.138 5.923-38.499 14.092-53.08 24.969-16.43 12.25-28.842 27.561-37.958 46.795l-10.6 22.38" stroke="#AAB1BA" stroke-width="3" fill="#AAB1BA"/><g transform="rotate(68 143.655 1050.073)"><rect fill="#AAB1BA" x="47.835" width="20" height="146" rx="10"/><rect fill="#AAB1BA" x="128.612" y=".28" width="20" height="146" rx="10"/><path d="M190 66.99v31.777c0 3.972-3.166 7.944-7.916 7.944h-7.917v63.556c0 17.478-14.25 31.778-31.667 31.778h-95c-17.417 0-31.667-14.3-31.667-31.778v-63.556H7.916C3.958 106.711 0 102.74 0 98.767V66.989c0-3.972 3.959-7.944 7.916-7.944h174.17c4.748 0 7.914 3.972 7.914 7.944" stroke="#000" stroke-width="4" fill="#85746E" fill-rule="nonzero" stroke-linecap="round" stroke-linejoin="round" stroke-dasharray="280,30"/><path d="M97.988 124.82c8.857 0 16.102 7.27 16.102 16.158 0 8.888-7.245 16.159-16.102 16.159-8.856 0-16.102-7.271-16.102-16.159 0-8.887 7.246-16.158 16.102-16.158" fill="gold" fill-rule="nonzero"/></g><g fill-rule="nonzero"><path d="M1464.795 569.393l29.03-12.925c3.63-1.616 5.97-6.124 4.038-10.464l-3.22-7.232 58.061-25.85c15.967-7.11 23.234-25.944 16.15-41.855l-12.88-28.929-12.88-28.929-12.88-28.929c-7.084-15.91-25.944-23.113-41.91-16.004l-58.062 25.85-3.22-7.231c-1.61-3.617-6.849-5.617-10.477-4.001l-29.03 12.925c-3.63 1.616-5.647 6.848-4.038 10.463l16.1 36.162 19.321 43.394 19.32 43.394 16.1 36.162c1.932 4.337 6.848 5.614 10.477 3.999" stroke="#000" stroke-width="4" fill="#85746E" stroke-linecap="round" stroke-linejoin="round" stroke-dasharray="280,30"/><path d="M1475.836 459.818c3.602 8.09 13.192 11.753 21.31 8.138 8.12-3.615 11.815-13.192 8.213-21.282-3.602-8.091-13.192-11.753-21.311-8.138s-11.814 13.192-8.212 21.282" fill="gold"/></g><path d="M988.81 470.004l20.094 43.092m87.067-14.96l-43.092 20.094m-4.875-56.153l-16.262 44.68m446.954 133.994l-23.05-41.585m-85.812 20.997l41.585-23.052m8.781 55.676l13.106-45.704" stroke="#AAB1BA" stroke-linecap="round" stroke-linejoin="round" stroke-width="4"/><path d="M1378 634h3v3h-3zm0 6h3v3h-3zm-3-3h3v3h-3zm6 0h3v3h-3z" fill="#AAB1BA"/><g fill="#AAB1BA"><path d="M1452.667 634h1.667v1.667h-1.667zm0 3.333h1.667V639h-1.667zm-1.667-1.666h1.667v1.667H1451z"/><path d="M1454.333 635.667H1456v1.667h-1.667z"/></g><g fill="#AAB1BA"><path d="M1016.667 530h1.667v1.667h-1.667zm0 3.333h1.667V535h-1.667zm-1.667-1.666h1.667v1.667H1015z"/><path d="M1018.333 531.667H1020v1.667h-1.667z"/></g><path d="M1437 667h3v3h-3zm0 6h3v3h-3zm-3-3h3v3h-3zm6 0h3v3h-3zm-342-134h3v3h-3zm0 6h3v3h-3zm-3-3h3v3h-3zm6 0h3v3h-3z" fill="#AAB1BA"/><circle fill="#AAB1BA" cx="1407.5" cy="688.5" r="3.5"/><circle fill="#AAB1BA" cx="1060.5" cy="478.5" r="3.5"/><circle fill="#AAB1BA" cx="1411" cy="579" r="1"/><circle fill="#AAB1BA" cx="1455" cy="685" r="1"/><circle fill="#AAB1BA" cx="1074" cy="529" r="1"/><circle fill="#AAB1BA" cx="1421" cy="641.5" r="1"/></g></g></g></svg>