<?xml version="1.0" encoding="UTF-8"?>
<svg width="653px" height="653px" viewBox="0 0 653 653" version="1.1" xmlns="http://www.w3.org/2000/svg" xmlns:xlink="http://www.w3.org/1999/xlink">
    <title>Error forbidden</title>
    <g id="pages" stroke="none" stroke-width="1" fill="none" fill-rule="evenodd">
        <g id="Error-forbidden" transform="translate(-385.000000, -31.000000)">
            <g transform="translate(385.019928, 31.019928)">
                <polygon id="Polygon" fill="#FFD700" transform="translate(326.480072, 326.480072) rotate(-330.000000) translate(-326.480072, -326.480072) " points="326.480072 104.980072 518.304698 215.730072 518.304698 437.230072 326.480072 547.980072 134.655445 437.230072 134.655445 215.730072"></polygon>
                <path d="M326.480072,88.0574218 L532.960143,207.268747 L532.960143,445.691396 L326.480072,564.902721 L120,445.691396 L120,207.268747 L326.480072,88.0574218 Z" id="Polygon" stroke="#FFD700" transform="translate(326.480072, 326.480072) rotate(-330.000000) translate(-326.480072, -326.480072) "></path>
                <g id="Group-3" transform="translate(222.980072, 183.980072)">
                    <g id="palm-of-hand" fill="#F6F7FB" fill-rule="nonzero" stroke="#000000" stroke-dasharray="280,30" stroke-linecap="round" stroke-linejoin="round" stroke-width="4">
                        <path d="M96.4404184,0 C103.727053,0 109.634037,5.88917752 109.634037,13.1538462 L109.634037,13.1538462 L109.634037,96.4615385 C109.634037,98.8818462 111.604284,100.846154 114.031909,100.846154 C116.459535,100.846154 118.429782,98.8818462 118.429782,96.4615385 L118.429782,96.4615385 L118.429782,21.9230769 L118.433385,21.6125893 C118.598835,14.4913479 124.440861,8.76923077 131.6234,8.76923077 C138.910034,8.76923077 144.817018,14.6584083 144.817018,21.9230769 L144.817018,21.9230769 L144.817018,105.230769 C144.817018,107.651077 146.787265,109.615385 149.214891,109.615385 C151.642517,109.615385 153.612764,107.651077 153.612764,105.230769 L153.612764,105.230769 L153.612764,48.2307692 L153.616367,47.9202816 C153.781816,40.7990403 159.623843,35.0769231 166.806382,35.0769231 C174.093016,35.0769231 180,40.9661006 180,48.2307692 L180,48.2307692 L180,166.615385 C180,180.716308 174.502659,228 113.090765,228 C75.999106,228 56.1647001,213.486923 43.9210225,194.931231 C39.3908617,188.065625 32.6041472,177.806183 25.8509078,167.604246 L24.756443,165.950927 C13.6397214,149.158392 2.95044025,133.029231 2.95044025,133.029231 C-2.25664104,124.944 -0.391943012,114.578769 7.12841933,109.825846 C14.6751689,105.178154 24.9749868,107.896615 30.2524341,116.008154 L30.2524341,116.008154 L48.0638186,140.307692 L48.0638186,30.6923077 L48.0674219,30.38182 C48.2328711,23.2605787 54.0748974,17.5384615 61.2574367,17.5384615 C68.5440708,17.5384615 74.4510548,23.4276391 74.4510548,30.6923077 L74.4510548,30.6923077 L74.4510548,96.4615385 C74.4510548,98.8818462 76.4213018,100.846154 78.8489276,100.846154 C81.2765533,100.846154 83.2468003,98.8818462 83.2468003,96.4615385 L83.2468003,96.4615385 L83.2468003,13.1538462 L83.2504036,12.8433585 C83.4158528,5.72211718 89.2578791,0 96.4404184,0 Z" id="Combined-Shape"></path>
                    </g>
                    <text id="403" font-family="ArialRoundedMTBold, Arial Rounded MT Bold" font-size="61.754386" font-weight="normal" line-spacing="65.6140351" fill="#000000">
                        <tspan x="56.8596745" y="297.859674">403</tspan>
                    </text>
                </g>
            </g>
        </g>
    </g>
</svg>