<?xml version="1.0" encoding="UTF-8"?>
<svg width="484px" height="507px" viewBox="0 0 484 507" version="1.1" xmlns="http://www.w3.org/2000/svg" xmlns:xlink="http://www.w3.org/1999/xlink">
    <title>Page introuvable</title>
    <g id="pages" stroke="none" stroke-width="1" fill="none" fill-rule="evenodd">
        <g id="Page-introuvable" transform="translate(-477.000000, -99.000000)">
            <g transform="translate(477.000000, 99.000000)">
                <path d="M484,245.998555 C484,378.54515 376.548673,486 244,486 C111.451327,486 4,378.54515 4,245.998555 C4,113.450996 111.451327,6 244,6 C376.548673,6 484,113.450996 484,245.998555" id="Fill-119" fill="#F0F4F8"></path>
                <path d="M480,239.998555 C480,372.54515 372.548673,480 240,480 C107.451327,480 0,372.54515 0,239.998555 C0,107.450996 107.451327,0 240,0 C372.548673,0 480,107.450996 480,239.998555" id="Fill-119" fill="#F6F7FB"></path>
                <g id="006-file" transform="translate(105.000000, 81.000000)" fill-rule="nonzero">
                    <g id="Group-4">
                        <path d="M273.403883,80.7187031 L215.506483,80.7187031 C204.570057,80.7187031 196.20735,72.3519506 196.20735,61.4102324 L196.20735,3.48482008 L273.403883,80.7187031 Z" id="Path" fill="#AAB1BA"></path>
                        <path d="M273.403883,80.7187031 L273.403883,286.675976 C273.403883,300.83527 261.824403,312.420352 247.671956,312.420352 L28.9486996,312.420352 C14.7962533,312.420352 3.21677347,300.83527 3.21677347,286.675976 L3.21677347,29.2291964 C3.21677347,15.0699025 14.7962533,3.48482008 28.9486996,3.48482008 L196.208104,3.48482008 L196.208104,61.4102324 C196.208104,72.3519506 204.570811,80.7187031 215.507237,80.7187031 L273.403883,80.7187031 Z" id="Path" fill="#F6F7FB"></path>
                        <path d="M247.671956,315.638682 L28.9486996,315.638682 C12.86634,315.638682 0,302.766117 0,286.675976 L0,29.2291964 C0,13.1390555 12.86634,0.26649021 28.9486996,0.26649021 L170.475424,0.26649021 C172.405337,0.26649021 173.692198,1.55397301 173.692198,3.48482008 C173.692198,5.41566716 172.405337,6.70314996 170.475424,6.70314996 L28.9486996,6.70314996 C16.7261666,6.70314996 6.43279307,17.0007496 6.43279307,29.2299506 L6.43279307,286.675976 C6.43279307,298.904423 16.7254127,309.202777 28.9486996,309.202777 L247.671956,309.202777 C259.894489,309.202777 270.187863,298.905177 270.187863,286.675976 L270.187863,82.0061859 L199.424124,11.2082084 L199.424124,61.4102324 C199.424124,70.4211035 206.500724,77.5003733 215.506483,77.5003733 L234.805616,77.5003733 C236.73553,77.5003733 238.02239,78.7878561 238.02239,80.7187031 C238.02239,82.6495502 236.73553,83.937033 234.805616,83.937033 L215.506483,83.937033 C203.28395,83.937033 192.990577,73.6394334 192.990577,61.4102324 L192.990577,3.48482008 C192.990577,2.19733729 193.63363,0.910608727 194.92049,0.26649021 C196.20735,-0.37687407 197.493457,0.26649021 198.137264,0.90985449 L275.333796,78.1437375 C275.976849,78.7871018 275.976849,79.4312203 275.976849,80.7179489 L275.976849,286.675222 C276.620656,302.766117 263.754316,315.638682 247.671956,315.638682 Z" id="Shape" fill="#000000"></path>
                    </g>
                </g>
                <text id="404" font-family="ArialRoundedMTBold, Arial Rounded MT Bold" font-size="106.666667" font-weight="normal" line-spacing="113.333333" fill="#000000">
                    <tspan x="148.5" y="287">404</tspan>
                </text>
                <g id="loupe" transform="translate(52.000000, 300.000000)" fill-rule="nonzero">
                    <g id="Group" transform="translate(1.754380, 1.754373)">
                        <path d="M199.281879,179.633505 C204.895319,185.246924 204.895319,194.018379 199.281879,199.631797 C193.668438,205.245216 184.896948,205.245216 179.283507,199.631797 L154.724241,175.072628 L155.074953,174.721918 L174.37149,155.074337 L199.281879,179.633505 Z" id="Path" fill="#FFD700"></path>
                        <path d="M80.6949083,14.033752 C117.534013,14.033752 147.356009,43.8556291 147.356009,80.6945877 C147.356009,117.533546 117.534013,147.355423 80.6949083,147.355423 C43.8558033,147.355423 14.0338077,117.533546 14.0338077,80.6945877 C14.0338077,43.8556291 43.8558033,14.033752 80.6949083,14.033752" id="Path" fill="#ECF4F7" opacity="0.424461001"></path>
                        <g fill="#AAB1BA">
                            <path d="M147.35642,80.6945877 C147.35642,43.8556291 117.534424,14.033752 80.6953194,14.033752 C43.8562144,14.033752 14.0338077,43.8556291 14.0338077,80.6945877 C14.0338077,117.533546 43.8558033,147.355423 80.6949083,147.355423 C117.534013,147.355423 147.35642,117.533546 147.35642,80.6945877 M161.390228,80.6945877 C161.390228,97.8859647 156.127498,114.025211 146.654586,127.006421 C141.391856,134.724923 134.72587,141.391295 127.006926,146.654003 C114.025664,155.776168 97.8863536,161.389587 80.6949083,161.389587 C36.1372707,161.389587 0,125.252459 0,80.6949989 C0,36.1375383 36.1372707,0 80.6949083,0 C125.252957,0 161.390228,36.1371272 161.390228,80.6945877" id="Shape"></path>
                            <path d="M155.074953,174.721918 L127.358049,147.005124 L127.007337,146.654414 C134.72587,141.391706 141.392268,134.725746 146.654997,127.006833 L147.005708,127.006833 L174.722612,154.723626 L174.722612,154.723626 L155.426075,174.371208 L155.074953,174.721918 Z" id="Path"></path>
                        </g>
                    </g>
                    <path d="M191.212634,207 C187.002451,207 183.142979,205.245627 179.985342,202.439123 L138.585342,160.688166 C137.883507,159.986335 137.883507,158.933793 138.585342,158.232373 C139.287176,157.530541 140.339722,157.530541 141.041145,158.232373 L182.441145,199.982918 C184.896948,202.438712 187.703874,203.491254 191.212223,203.491254 L191.212223,203.491254 C194.369861,203.491254 197.527498,202.088002 199.983302,199.982918 C202.439105,197.527125 203.491651,194.72021 203.491651,191.211875 C203.491651,187.70354 202.088393,184.896625 199.983302,182.440831 L176.476581,158.934204 L167.705503,167.705248 C167.003669,168.407079 165.951123,168.407079 165.2497,167.705248 C164.547865,167.003416 164.547865,165.950875 165.2497,165.249454 L175.073324,155.425869 C175.424035,155.075159 175.775158,155.075159 176.476581,155.075159 L176.476581,155.075159 C176.827293,155.075159 177.529127,155.425869 177.879839,155.425869 L202.439105,179.985038 C205.596743,182.791953 207,187.002119 207,191.212286 C207,195.422453 205.24562,199.281909 202.439105,202.439534 C199.281879,205.245627 195.422818,207 191.212634,207 L191.212634,207 Z M82.4492884,164.898333 C36.839105,164.898333 0,128.059374 0,82.4489609 C0,36.8385475 36.839105,0 82.4492884,0 C128.059472,0 164.898577,36.8389587 164.898577,82.4489609 C164.898577,99.6403379 159.635848,115.428463 150.864769,128.410084 L168.407337,145.952583 C168.758049,146.303293 168.758049,146.654414 168.758049,147.355835 C168.758049,148.057255 168.758049,148.408376 168.407337,148.759086 C167.705503,149.460918 166.652957,149.460918 165.951534,148.759086 L149.1108,131.91842 C133.673324,151.566001 109.464769,164.898333 82.4492884,164.898333 Z M82.4492884,3.5083352 C38.9441967,3.5083352 3.50834914,38.944042 3.50834914,82.4489609 C3.50834914,125.95388 38.9441967,161.389587 82.4492884,161.389587 C125.95438,161.389587 161.390228,125.95388 161.390228,82.4489609 C161.390228,38.944042 125.954791,3.5083352 82.4492884,3.5083352 Z M82.4492884,150.86417 C44.5576376,150.86417 14.0338077,120.340461 14.0338077,82.4489609 C14.0338077,44.5574606 44.5576376,14.033752 82.4492884,14.033752 C120.340939,14.033752 150.864769,44.5574606 150.864769,82.4489609 C150.864769,120.340461 120.340939,150.86417 82.4492884,150.86417 Z M82.4492884,17.5424983 C46.6627293,17.5424983 17.5421569,46.6629551 17.5421569,82.4493721 C17.5421569,118.235789 46.6627293,147.355835 82.4492884,147.355835 C118.235848,147.355835 147.35642,118.235378 147.35642,82.4489609 C147.35642,46.6625439 118.235848,17.5424983 82.4492884,17.5424983 Z M114.025664,80.6949989 C113.674953,80.6949989 112.973118,80.6949989 112.622407,80.3442887 L84.5543801,52.2763736 C84.2036686,51.9256634 84.2036686,51.5745421 84.2036686,50.8731218 C84.2036686,50.1712903 84.2036686,49.8205801 84.5543801,49.4698699 C85.2562144,48.7680384 86.3087603,48.7680384 87.0101834,49.4698699 L115.07821,77.537785 C115.428922,77.8884952 115.428922,78.2396165 115.428922,78.9410369 C115.428922,79.6424572 115.428922,79.9935785 115.07821,80.3442887 C114.727498,80.6949989 114.376787,80.6949989 114.025664,80.6949989 Z M121.042774,59.6441654 C120.692062,59.6441654 119.990228,59.6441654 119.639516,59.2934552 L105.605708,45.2597032 C105.254586,44.9085819 105.254586,44.5574606 105.254586,43.8560402 C105.254586,43.1546199 105.254586,42.8034985 105.605297,42.4527884 C106.307132,41.7509569 107.359677,41.7509569 108.061101,42.4527884 L122.094908,56.4865403 C122.44562,56.8372505 122.44562,57.1883718 122.44562,57.8897922 C122.44562,58.5912125 122.44562,58.9423339 122.094908,59.293044 C121.744608,59.6441654 121.393485,59.6441654 121.042774,59.6441654 Z" id="Shape" fill="#000000"></path>
                </g>
            </g>
        </g>
    </g>
</svg>