<?xml version="1.0" encoding="UTF-8"?>
<svg width="1440px" height="929px" viewBox="0 0 1440 929" version="1.1" xmlns="http://www.w3.org/2000/svg" xmlns:xlink="http://www.w3.org/1999/xlink">
    <title>site en maintenance</title>
    <defs>
        <rect id="path-1" x="0" y="0" width="1440" height="929"></rect>
    </defs>
    <g id="pages" stroke="none" stroke-width="1" fill="none" fill-rule="evenodd">
        <g id="site-en-maintenance">
            <mask id="mask-2" fill="white">
                <use xlink:href="#path-1"></use>
            </mask>
            <g id="Mask"></g>
            <g id="Rectangle" mask="url(#mask-2)">
                <g transform="translate(-519.000000, -219.000000)" id="Mask">
                    <g id="Na_June_25">
                        <path d="M1480,563.998555 C1480,696.54515 1372.54867,804 1240,804 C1107.45133,804 1000,696.54515 1000,563.998555 C1000,431.450996 1107.45133,324 1240,324 C1372.54867,324 1480,431.450996 1480,563.998555" id="Fill-119" fill="#F0F4F8"></path>
                        <path d="M1476,557.998555 C1476,690.54515 1368.54867,798 1236,798 C1103.45133,798 996,690.54515 996,557.998555 C996,425.450996 1103.45133,318 1236,318 C1368.54867,318 1476,425.450996 1476,557.998555" id="Fill-119" fill="#F6F7FB"></path>
                        <path d="M583.471783,684.733958 C570.94098,664.888065 560.906986,643.943089 552.744512,626.069786 C551.23746,622.767737 549.781029,619.24971 548.373291,615.846871 C542.526354,601.717171 536.479827,587.102723 524.552135,581.117758 C520.657231,579.161486 516.846212,578.194388 513,578.044644 L513,560 C519.353144,560.141585 525.93384,561.633267 532.702074,565.031786 C550.643028,574.040429 558.326774,592.604859 565.105132,608.9836 C566.514799,612.391238 567.845402,615.606897 569.218911,618.611378 C577.131656,635.937538 586.833,656.205787 598.792029,675.144576 C641.126395,742.203057 687.654086,752.982713 713.16742,752.982713 C714.036651,752.982713 714.886115,752.968314 715.705689,752.944317 C773.805763,751.293292 833.707453,726.215954 886.964328,703.394377 L883.21984,694.625708 L904.534064,685.602666 L898.520802,671.52576 C896.495008,666.783864 898.712196,661.302846 903.472956,659.28226 L927.966163,716.631372 C929.484303,720.187794 932.955439,722.318768 936.604953,722.318768 C937.829493,722.318768 939.073317,722.078794 940.271341,721.574847 L937.610619,739.184178 C936.412595,739.692924 935.168289,739.932898 933.943749,739.932898 C930.293753,739.932898 926.82358,737.797125 925.30544,734.240702 L919.137424,719.799036 L897.8232,728.822078 L894.044482,719.971817 C839.314785,743.426927 777.707899,769.204991 716.222985,770.952005 C715.091008,770.985602 713.968674,771 712.849233,771 C647.775067,771 603.965469,717.192912 583.471783,684.733958 Z" id="Combined-Shape" fill="#F6F7FB"></path>
                        <g id="Group-135" fill="#AAB1BA">
                            <polyline id="Fill-132" points="897.13424 713.593292 882.57806 679.211548 905.44382 669.449546 920 703.83129 897.13424 713.593292"></polyline>
                            <path d="M267.126645,587.168846 C262.650852,581.070852 258.649356,574.457976 255.188953,567.37606 C237.352094,530.877849 230.504332,493.331537 234.835001,455.781365 C238.641876,422.774409 250.659819,389.969159 271.574567,355.490422 C309.246391,293.386619 367.851704,239.40897 419.558317,191.784103 C427.223966,184.723902 434.464334,178.055533 441.53651,171.452308 C454.895173,158.979817 469.909313,144.203147 479.000258,126.656153 C488.214223,108.875122 489.951872,89.4688591 483.648567,74.7438218 C478.05791,61.6753814 465.561344,50.1380746 446.512551,40.4527978 C412.436644,23.1272943 376.160322,15.8214754 338.693211,18.7409076 C305.656241,21.3148335 270.490459,31.9299857 234.171369,50.2929734 C167.563064,83.9692278 107.408475,137.19844 52.3250739,189.703826 L12.4172758,227.743787 L0,214.606342 L39.906837,176.566381 C95.9926539,123.106509 157.362541,68.8475337 226.060254,34.1149757 C264.483649,14.687481 301.910395,3.43922215 337.297228,0.6824095 C378.107489,-2.49760019 417.59385,5.44711598 454.661148,24.293137 C477.584093,35.9481862 492.915392,50.512534 500.220633,67.5919366 C508.764718,87.5521674 506.862241,112.127514 495.002398,135.016828 C484.584188,155.123754 468.281227,171.21441 453.818753,184.717629 C446.701886,191.362353 439.439894,198.05099 431.751659,205.132422 C380.927326,251.944192 323.322027,305.001133 286.97987,364.912709 C245.747691,432.885295 240.645748,496.501413 271.381869,559.397083 C286.743923,590.834302 314.441079,611.43729 345.471294,614.52079 C379.870608,617.937249 411.570222,597.433666 442.226573,577.60662 C448.048372,573.840793 454.068636,569.947574 459.914944,566.359326 C462.082681,565.028451 464.280692,563.626641 466.509459,562.205529 C484.837435,550.519596 507.647451,535.976963 533.192729,548.91415 C551.07524,557.971146 558.734162,576.636693 565.49062,593.105186 C566.895733,596.528884 568.222517,599.762456 569.591589,602.785155 C577.47877,620.205238 587.148771,640.583358 599.068683,659.624812 C642.704548,729.34375 690.814764,738.555644 715.605105,737.846295 C775.070593,736.14289 836.431349,709.602597 890.569038,686.184407 L898.408645,682.796901 L905.531279,699.435252 L897.705127,702.817933 C842.081114,726.877915 779.036048,754.14686 716.12073,755.9516 C649.399497,757.867327 604.576687,702.465671 583.797933,669.266177 C571.308095,649.312702 561.306518,628.254185 553.170415,610.283994 C551.667751,606.964044 550.216506,603.426947 548.812835,600.004697 C542.984789,585.797437 536.957797,571.10473 525.06912,565.087322 C509.810383,557.359271 495.803946,564.983091 476.177538,577.497081 C473.861793,578.973686 471.576323,580.430024 469.322087,581.813497 C463.656945,585.290758 457.991323,588.955249 451.993164,592.834475 C420.287784,613.33854 384.352168,636.583012 343.696643,632.544062 C313.524681,629.547421 286.099993,613.020057 267.126645,587.168846" id="Fill-134"></path>
                        </g>
                        <path d="M1921,607 C1888.5848,587.842684 1856.7616,557.425341 1829.03421,530.921979 C1811.8183,514.466099 1796.95111,500.253497 1784.62034,491.242083 C1725.95052,448.368654 1672.10327,427.121264 1621.54326,427.121264 C1604.97228,427.121264 1588.75265,429.404298 1572.83624,433.955336 L1579.00162,447.412097 L1560.67873,455.932871 C1560.58248,455.041765 1560.34664,454.150175 1559.95198,453.291067 L1545.76341,422.336056 L1563.69164,414 L1569.20728,426.034774 C1586.36543,420.991155 1603.81718,418.4628 1621.63952,418.4628 C1673.96588,418.4628 1729.45434,440.267738 1789.64987,484.257715 C1802.43305,493.603173 1817.49277,507.996614 1834.93007,524.663392 C1861.06919,549.651196 1896.42119,580.728001 1926.47323,599.476612 L1921,607 C1939.02787,616.743454 1953.72439,623.726427 1965.08957,627.948918 C1976.45476,632.17141 1976.45476,628.390468 1965.08957,616.606095 L1926.47323,599.476612" id="Combined-Shape" fill="#F6F7FB"></path>
                        <g id="Group-154" transform="translate(1540.000000, 117.000000)" fill="#AAB1BA">
                            <polyline id="Fill-151" points="25.2344521 282.115799 40.521215 315.355447 15.2867629 327.045948 0 293.806783 25.2344521 282.115799"></polyline>
                            <path d="M22.173255,296.807303 C92.0473614,272.790601 166.84245,290.847742 250.849964,352.011376 C263.613763,361.308117 278.650632,375.627269 296.061491,392.208025 C340.725173,434.744897 396.307286,487.684472 444.993295,484.328963 C463.619982,483.045506 479.617981,473.704874 493.905169,455.773136 C540.587224,397.17304 526.045336,317.576536 513.214259,247.350087 C512.599136,243.968051 511.984013,240.61206 511.383307,237.28549 C510.273203,231.146506 509.105431,224.942408 507.928047,218.688632 C498.758873,169.964544 489.272526,119.587541 500.887774,71.3698908 C507.918436,42.1942813 524.805479,20.5838798 549.722759,8.87601496 C577.691624,-4.26675547 613.349524,-2.73972654 645.100433,12.9622402 C678.95141,29.7036091 706.39646,60.9512705 724.465692,103.328976 C739.569841,138.764632 747.816331,181.148126 747.676967,222.67357 C747.455907,290.733914 733.514726,358.346665 720.039692,423.718552 L719.366901,426.998818 C718.482662,431.277972 717.5792,435.575936 716.675739,439.889334 C704.834625,496.380723 692.575419,554.799467 716.147118,609.070249 C735.249564,653.053119 773.007532,672.577481 801.951944,672.413492 L802,681 C782.455434,681.10492 762.973341,674.116086 745.658595,660.779905 C729.785544,648.553062 716.517152,631.406543 708.309107,612.499552 C683.641722,555.715877 696.179654,495.941811 708.309107,438.12018 C709.212569,433.816911 710.111225,429.529075 710.990658,425.260532 L711.668255,421.979301 C725.056787,357.022211 738.906661,289.841138 739.127721,222.645595 C739.257474,182.263735 731.260877,141.089421 716.598848,106.706671 C699.346576,66.2389578 673.314386,36.4855275 641.318389,20.6624982 C611.87419,6.10218573 578.989148,4.60120215 553.351022,16.6500681 C530.8654,27.2138671 515.602665,46.8337289 509.206349,73.388405 C498.013997,119.810374 507.332147,169.264214 516.333124,217.095043 C517.515313,223.370041 518.687891,229.593914 519.797995,235.754121 C520.398701,239.074902 521.009018,242.42607 521.628947,245.801836 C534.786808,317.833131 549.69873,399.478535 500.585019,461.133172 C484.937832,480.770397 466.431286,491.456223 445.579584,492.893541 C393.14517,496.506126 336.049279,442.127787 290.174573,398.434309 C272.984774,382.063363 258.135325,367.9246 245.828063,358.959695 C164.23779,299.557016 91.9896936,281.882838 24.9461132,304.928145 L22.173255,296.807303" id="Fill-153" stroke="#AAB1BA" stroke-width="4"></path>
                        </g>
                        <path d="M1259,417.516047 C1259,408.678807 1257.35877,402.049675 1254.07163,397.629132 C1250.77981,393.210512 1245.08927,391 1237,391 C1228.90606,391 1223.21552,393.210512 1219.92837,397.629132 C1216.64123,402.049675 1215,408.678807 1215,417.516047 L1215,497.221843 L1226.37641,615.925219 L1226.37641,615.612796 C1226.8814,619.563744 1228.2,622.269806 1230.32285,623.721371 C1232.4457,625.177742 1234.67141,625.908331 1237,625.908331 C1239.32391,625.908331 1241.52625,625.206581 1243.60234,623.803081 C1245.67375,622.394775 1246.96429,619.770424 1247.46929,615.925219 L1259,497.221843 L1259,417.516047 Z M1223.07991,661.423598 C1223.86079,659.534641 1224.94091,657.890817 1226.30627,656.487317 C1227.6763,655.079011 1229.27545,653.973515 1231.1084,653.166022 C1232.94134,652.358529 1234.90521,651.954783 1237,651.954783 C1239.09479,651.954783 1241.05866,652.358529 1242.8916,653.166022 C1244.72455,653.973515 1246.3237,655.079011 1247.69373,656.487317 C1249.05909,657.890817 1250.13454,659.534641 1250.92476,661.423598 C1251.71031,663.307748 1252.09841,665.32648 1252.09841,667.479795 C1252.09841,669.633109 1251.71031,671.651841 1250.92476,673.535991 C1250.13454,675.420141 1249.05909,677.063966 1247.69373,678.467466 C1246.3237,679.875772 1244.72455,680.981268 1242.8916,681.788761 C1241.05866,682.596254 1239.09479,683 1237,683 C1234.90521,683 1232.94134,682.596254 1231.1084,681.788761 C1229.27545,680.981268 1227.6763,679.875772 1226.30627,678.467466 C1224.94091,677.063966 1223.86079,675.420141 1223.07991,673.535991 C1222.28969,671.651841 1221.90159,669.633109 1221.90159,667.479795 C1221.90159,665.32648 1222.28969,663.307748 1223.07991,661.423598 L1223.07991,661.423598 Z" id="Fill-155" fill="#FFD700"></path>
                        <g id="Group-161" transform="translate(487.000000, 181.519776)">
                            <path d="M0,286.203957 L0,265.589822 C12.7483449,258.206779 25.1661772,250.179764 37.1953547,241.540779 C68.3708527,219.151233 96.4710613,192.984498 120.71711,163.767285 C126.433769,156.878735 132.152379,149.583896 137.683296,142.528693 C160.38331,113.573363 183.855951,83.6317796 217.772324,66.8756238 C237.822384,56.9701611 261.211129,52.0037697 287.642385,52.0037697 C301.968762,52.0037697 317.187952,53.4626594 333.255472,56.3847319 C353.641117,60.0920601 373.757123,65.6622242 393.208593,71.049344 C409.293281,75.5032897 425.924272,80.1086664 442.387469,83.5521612 C468.648982,89.0454389 495.874327,91.8137386 523.532812,91.8137386 C528.882668,91.8137386 534.248133,91.7103128 539.629207,91.5026805 C571.6464,90.2666443 604.252819,85.3486484 636.53926,76.8845124 C677.74213,66.0837332 718.355773,49.48096 756.487646,28 L791.33,28 C744.574362,57.9013839 693.300027,80.5653012 641.093077,94.2510757 C607.542336,103.045394 573.640402,108.156581 540.319888,109.442184 C534.71249,109.659183 529.105091,109.767292 523.525007,109.767292 C494.633441,109.767683 466.182819,106.870979 438.711638,101.125186 C421.690432,97.5638246 404.774584,92.880781 388.420256,88.3515101 C369.351199,83.0709383 349.632822,77.6104447 330.044387,74.0479126 C315.024597,71.3166901 300.871086,69.9526399 287.63341,69.9526399 C263.997659,69.9526399 243.276428,74.2996472 225.721797,82.9725862 C195.463696,97.9209364 173.270962,126.229953 151.808712,153.606575 C146.202093,160.758179 140.40505,168.152931 134.528792,175.233893 C109.306814,205.627037 80.0820044,232.842472 47.6652305,256.123822 C32.3473156,267.125208 16.423786,277.170783 0,286.203957" id="Fill-156" fill="#F6F7FB"></path>
                            <path d="M5.74861981,287 L0,272.063065 C31.584187,259.902667 61.6906047,243.616433 89.4829638,223.655984 C117.274975,203.69623 142.326434,180.368795 163.941245,154.321884 C169.037948,148.180796 174.136391,141.677506 179.066811,135.387849 C199.303692,109.574404 220.229364,82.881722 250.465539,67.9437433 C278.028301,54.3261855 312.666475,51.1794433 353.417841,58.5908491 C371.591481,61.8959026 389.524391,66.8620072 406.865568,71.6642335 C421.20494,75.6348904 436.031334,79.7405469 450.708144,82.8107429 C478.649393,88.6553884 507.815159,91.0398006 537.398374,89.8985673 C565.941445,88.7966508 595.009807,84.4119489 623.792911,76.8665874 C679.626707,62.2309659 734.235987,35.6510156 781.720804,0 L791.329087,12.7999059 C742.202304,49.6843581 685.669281,77.1922564 627.852602,92.3487395 C597.942386,100.188456 567.719082,104.745039 538.014111,105.891491 C507.129847,107.084915 476.652595,104.588815 447.431169,98.4766058 C432.2569,95.3023766 417.176557,91.1271328 402.596805,87.089324 C385.596893,82.3817366 368.018118,77.5137502 350.555185,74.3377814 C313.257513,67.5550977 281.967628,70.231777 257.552431,82.2937085 C230.577576,95.620391 210.792931,120.857653 191.659506,145.263693 C186.661251,151.63929 181.493233,158.231652 176.254597,164.543925 C153.769405,191.639518 127.715373,215.90186 98.8164265,236.656997 C69.9171319,257.412134 38.6046346,274.349707 5.74861981,287" id="Fill-158" fill="#AAB1BA"></path>
                            <g id="Group-3" transform="translate(1005.666333, 521.675422)">
                                <path d="M81.998797,433.497233 L59.6127111,433.497233 C73.1233837,425.078043 88.6963131,418.422689 106.427866,413.449246 C147.224894,402.013219 192.652362,400.991543 236.590958,399.998782 C258.297656,399.51204 278.804583,399.049394 297.504626,397.314472 C327.055609,394.567512 348.246742,389.237446 366.214395,380.032722 C378.877037,373.546041 389.111226,365.059381 396.627863,354.808884 C403.624117,345.261994 408.129281,334.409093 410.018077,322.544155 C414.576242,293.927581 403.44102,262.877297 380.235813,239.479947 C367.712904,226.85839 352.751906,215.677782 336.913967,203.83212 C306.924514,181.413073 275.90875,158.227769 261.275401,123.823303 C251.812148,101.587386 251.792874,76.3008988 261.21758,54.4505206 C269.895441,34.3398836 285.786382,19.1593165 305.965661,11.699152 C327.045972,3.91128016 350.906475,0.00288653286 377.200248,0.00288653286 C389.048588,0.00288653286 401.393218,0.793239868 414.205229,2.38358499 C431.030931,4.4751298 448.526385,8.00762367 465.891743,12.7642014 L465.891743,23.7809558 C437.766994,15.8581455 407.117426,10.6485604 377.272524,10.6485604 C353.681849,10.6485604 330.592282,13.9015391 309.642067,21.6460379 C292.204433,28.0893453 278.467298,41.2265599 270.950661,58.6480679 C262.667906,77.8478708 262.696816,100.088606 271.027755,119.673948 C284.543246,151.447116 314.392967,173.76014 343.259743,195.340641 C358.712213,206.89233 374.685066,218.839195 387.762087,232.014963 C413.342743,257.802651 425.576551,292.269767 420.488366,324.211608 C416.02175,352.249874 398.463657,375.42554 371.047207,389.468769 C351.821963,399.319271 329.440695,404.996321 298.487571,407.868581 C279.416514,409.642056 258.72649,410.109521 236.827058,410.601083 C193.548577,411.574567 148.795678,412.581785 109.28997,423.66119 C99.3978836,426.432245 90.3345544,429.694863 81.998797,433.497233" id="Fill-159" fill="#F6F7FB"></path>
                                <path d="M0,517.804802 L0.790210525,479.655796 L6.86615852,479.781096 C25.8793947,447.179021 56.0664004,425.425027 98.7763156,413.449246 C139.573343,402.013219 185.000812,400.991543 228.939408,400.003601 C250.650924,399.51204 271.153032,399.049394 289.857894,397.314472 C319.404058,394.567512 340.595191,389.237446 358.562844,380.032722 C371.225486,373.546041 381.459676,365.059381 388.976313,354.808884 C395.972567,345.261994 400.47773,334.409093 402.371345,322.544155 C406.92951,293.927581 395.794287,262.877297 372.584262,239.484766 C360.061353,226.85839 345.100355,215.677782 329.262416,203.836939 C299.272963,181.413073 268.2572,158.227769 253.62385,123.823303 C244.160597,101.587386 244.141324,76.3008988 253.56603,54.4505206 C262.24389,34.3398836 278.134831,19.1593165 298.31411,11.699152 C328.901039,0.3980632 365.313362,-2.73443477 406.553678,2.38358499 C440.951928,6.6534207 478.164098,16.9665679 511.333667,31.4290701 L507.098331,41.144633 C449.899617,16.2147684 365.983114,-1.99709294 301.990516,21.6460379 C284.557701,28.0893453 270.815747,41.2265599 263.299111,58.6480679 C255.021173,77.8478708 255.045265,100.088606 263.376204,119.673948 C276.896514,151.447116 306.741416,173.76014 335.608192,195.340641 C351.060662,206.89233 367.038334,218.839195 380.110536,232.014963 C405.691192,257.802651 417.925001,292.269767 412.836816,324.211608 C408.370199,352.249874 390.812106,375.42554 363.395656,389.468769 C344.170412,399.319271 321.789144,404.996321 290.83602,407.868581 C271.764964,409.642056 251.079758,410.109521 229.175507,410.601083 C185.897026,411.574567 141.148946,412.581785 101.63842,423.66119 C80.500288,429.58402 63.1397483,437.752611 48.5594004,448.629608 C32.1288035,460.880085 19.7167163,476.190771 10.6003851,495.424309 L0,517.804802" id="Fill-160" stroke="#AAB1BA" stroke-width="3" fill="#AAB1BA"></path>
                            </g>
                        </g>
                    </g>
                    <g id="Group-4" transform="translate(1005.372807, 649.440668) rotate(-22.000000) translate(-1005.372807, -649.440668) translate(904.350284, 554.440668)">
                        <g id="Group" transform="translate(101.022523, 95.000000) rotate(-270.000000) translate(-101.022523, -95.000000) translate(6.022523, -6.022523)">
                            <rect id="Rectangle" fill="#AAB1BA" x="47.8349407" y="2.27373675e-13" width="20" height="146" rx="10"></rect>
                            <rect id="Rectangle-Copy" fill="#AAB1BA" x="128.611928" y="0.279978869" width="20" height="146" rx="10"></rect>
                            <path d="M190,66.9892324 L190,98.7669067 C190,102.739465 186.833596,106.711093 182.083527,106.711093 L174.167053,106.711093 L174.167053,170.267372 C174.167053,187.744953 159.916844,202.045046 142.500232,202.045046 L110.833411,202.045046 L79.1665894,202.045046 L47.4997681,202.045046 C30.0831555,202.045046 15.8329468,187.744953 15.8329468,170.267372 L15.8329468,106.711093 L7.91647339,106.711093 C3.95777282,106.711093 -9.09494702e-13,102.738534 -9.09494702e-13,98.7669067 L-9.09494702e-13,66.9892324 C-9.09494702e-13,63.016674 3.95870057,59.0450464 7.91647339,59.0450464 L47.5006958,59.0450464 L95.0013916,59.0450464 L142.502087,59.0450464 L182.08631,59.0450464 C186.833596,59.0450464 190,63.016674 190,66.9892324" id="Path" stroke="#000000" stroke-width="4" fill="#85746E" fill-rule="nonzero" stroke-linecap="round" stroke-linejoin="round" stroke-dasharray="280,30"></path>
                            <path d="M97.9884368,124.819754 C106.844695,124.819754 114.090467,132.09095 114.090467,140.978283 C114.090467,149.865616 106.844695,157.136813 97.9884368,157.136813 C89.1321784,157.136813 81.8864061,149.865616 81.8864061,140.978283 C81.8864061,132.09095 89.1321784,124.819754 97.9884368,124.819754" id="Path" fill="#FFD700" fill-rule="nonzero"></path>
                        </g>
                    </g>
                    <g id="Group-80-Copy" transform="translate(1484.215917, 456.755349) scale(-1, 1) rotate(-246.000000) translate(-1484.215917, -456.755349) translate(1389.215917, 385.255349)" fill-rule="nonzero">
                        <g id="Group" transform="translate(0.000000, -0.000000)">
                            <path d="M190,7.94418599 L190,39.7218603 C190,43.6944187 186.833596,47.6660461 182.083527,47.6660461 L174.167053,47.6660461 L174.167053,111.222326 C174.167053,128.699907 159.916844,143 142.500232,143 L110.833411,143 L79.1665894,143 L47.4997681,143 C30.0831555,143 15.8329468,128.699907 15.8329468,111.222326 L15.8329468,47.6660461 L7.91647339,47.6660461 C3.95777282,47.6660461 0,43.6934877 0,39.7218603 L0,7.94418599 C0,3.97162758 3.95870057,0 7.91647339,0 L47.5006958,0 L95.0013916,0 L142.502087,0 L182.08631,0 C186.833596,0 190,3.97162758 190,7.94418599" id="Path" stroke="#000000" stroke-width="4" fill="#85746E" stroke-linecap="round" stroke-linejoin="round" stroke-dasharray="280,30"></path>
                            <path d="M94.38948,62.5985397 C103.245738,62.5985397 110.491511,69.8697358 110.491511,78.7570688 C110.491511,87.6444018 103.245738,94.9155979 94.38948,94.9155979 C85.5332216,94.9155979 78.2874493,87.6444018 78.2874493,78.7570688 C78.2874493,69.8697358 85.5332216,62.5985397 94.38948,62.5985397" id="Path" fill="#FFD700"></path>
                        </g>
                    </g>
                    <g id="Group-5" transform="translate(1042.321061, 484.261283) rotate(65.000000) translate(-1042.321061, -484.261283) translate(1006.784512, 441.501317)" stroke="#AAB1BA" stroke-linecap="round" stroke-linejoin="round" stroke-width="4">
                        <line x1="9.09494702e-13" y1="85.2319026" x2="47.5466639" y2="85.2319026" id="Line-11"></line>
                        <line x1="70.7850677" y1="0" x2="70.7850677" y2="47.5466639" id="Line-11"></line>
                        <line x1="17.8328434" y1="28.2339796" x2="51.4534119" y2="61.8545481" id="Line-11"></line>
                    </g>
                    <g id="Group-5-Copy" transform="translate(1424.321061, 630.261283) scale(-1, -1) rotate(61.000000) translate(-1424.321061, -630.261283) translate(1388.784512, 587.501317)" stroke="#AAB1BA" stroke-linecap="round" stroke-linejoin="round" stroke-width="4">
                        <line x1="-9.09494702e-13" y1="85.2319026" x2="47.5466639" y2="85.2319026" id="Line-11"></line>
                        <line x1="70.7850677" y1="-2.27373675e-13" x2="70.7850677" y2="47.5466639" id="Line-11"></line>
                        <line x1="17.8328434" y1="28.2339796" x2="51.4534119" y2="61.8545481" id="Line-11"></line>
                    </g>
                    <g id="Group-3" transform="translate(1375.000000, 634.000000)" fill="#AAB1BA">
                        <rect id="Rectangle" x="3" y="0" width="3" height="3"></rect>
                        <rect id="Rectangle-Copy-6" x="3" y="6" width="3" height="3"></rect>
                        <rect id="Rectangle-Copy-4" x="0" y="3" width="3" height="3"></rect>
                        <rect id="Rectangle-Copy-5" x="6" y="3" width="3" height="3"></rect>
                    </g>
                    <g id="Group-3-Copy-2" transform="translate(1451.000000, 634.000000)" fill="#AAB1BA">
                        <rect id="Rectangle" x="1.66666667" y="0" width="1.66666667" height="1.66666667"></rect>
                        <rect id="Rectangle-Copy-6" x="1.66666667" y="3.33333333" width="1.66666667" height="1.66666667"></rect>
                        <rect id="Rectangle-Copy-4" x="0" y="1.66666667" width="1.66666667" height="1.66666667"></rect>
                        <rect id="Rectangle-Copy-5" x="3.33333333" y="1.66666667" width="1.66666667" height="1.66666667"></rect>
                    </g>
                    <g id="Group-3-Copy-4" transform="translate(1015.000000, 530.000000)" fill="#AAB1BA">
                        <rect id="Rectangle" x="1.66666667" y="0" width="1.66666667" height="1.66666667"></rect>
                        <rect id="Rectangle-Copy-6" x="1.66666667" y="3.33333333" width="1.66666667" height="1.66666667"></rect>
                        <rect id="Rectangle-Copy-4" x="0" y="1.66666667" width="1.66666667" height="1.66666667"></rect>
                        <rect id="Rectangle-Copy-5" x="3.33333333" y="1.66666667" width="1.66666667" height="1.66666667"></rect>
                    </g>
                    <g id="Group-3-Copy" transform="translate(1434.000000, 667.000000)" fill="#AAB1BA">
                        <rect id="Rectangle" x="3" y="0" width="3" height="3"></rect>
                        <rect id="Rectangle-Copy-6" x="3" y="6" width="3" height="3"></rect>
                        <rect id="Rectangle-Copy-4" x="0" y="3" width="3" height="3"></rect>
                        <rect id="Rectangle-Copy-5" x="6" y="3" width="3" height="3"></rect>
                    </g>
                    <g id="Group-3-Copy-3" transform="translate(1095.000000, 536.000000)" fill="#AAB1BA">
                        <rect id="Rectangle" x="3" y="0" width="3" height="3"></rect>
                        <rect id="Rectangle-Copy-6" x="3" y="6" width="3" height="3"></rect>
                        <rect id="Rectangle-Copy-4" x="0" y="3" width="3" height="3"></rect>
                        <rect id="Rectangle-Copy-5" x="6" y="3" width="3" height="3"></rect>
                    </g>
                    <circle id="Oval" fill="#AAB1BA" cx="1407.5" cy="688.5" r="3.5"></circle>
                    <circle id="Oval-Copy-4" fill="#AAB1BA" cx="1060.5" cy="478.5" r="3.5"></circle>
                    <circle id="Oval-Copy-3" fill="#AAB1BA" cx="1411" cy="579" r="1"></circle>
                    <circle id="Oval-Copy-2" fill="#AAB1BA" cx="1455" cy="685" r="1"></circle>
                    <circle id="Oval-Copy-5" fill="#AAB1BA" cx="1074" cy="529" r="1"></circle>
                    <circle id="Oval-Copy" fill="#AAB1BA" cx="1421" cy="641.5" r="1"></circle>
                </g>
            </g>
        </g>
    </g>
</svg>